<svg width="25" height="24" viewBox="0 0 25 24" fill="none" xmlns="http://www.w3.org/2000/svg">
<path d="M5.5 5V5.00874M9 5V5.00874M12.5 5V5.00874M16 5V5.00874M19.5 5V5.00874M5.5 18.9913V19M9 18.9913V19M12.5 18.9913V19M19.5 11.9956V12.0044M19.5 8.49781V8.50656M5.5 15.4934V15.5022M5.5 11.9956V12.0044M5.5 8.49781V8.50656" stroke="#5D5E62" stroke-width="2" stroke-linecap="round" stroke-linejoin="round"/>
<path d="M18.92 15.6151C19.115 15.4201 19.3465 15.2654 19.6013 15.1599C19.8561 15.0543 20.1292 15 20.405 15C20.6808 15 20.9539 15.0543 21.2087 15.1599C21.4635 15.2654 21.695 15.4201 21.89 15.6151C22.085 15.8101 22.2397 16.0416 22.3452 16.2964C22.4508 16.5512 22.5051 16.8243 22.5051 17.1001C22.5051 17.3759 22.4508 17.649 22.3452 17.9038C22.2397 18.1586 22.085 18.3901 21.89 18.5851L18.5 22.0051H15.5V19.0051L18.92 15.6151Z" fill="#D7D7D8" stroke="#5D5E62" stroke-width="1.2" stroke-linecap="round" stroke-linejoin="round"/>
</svg>
