<svg width="25" height="24" viewBox="0 0 25 24" fill="none" xmlns="http://www.w3.org/2000/svg">
<path d="M5.5 5V5.00874M9 5V5.00874M12.5 5V5.00874M16 5V5.00874M19.5 5V5.00874M5.5 18.9913V19M9 18.9913V19M12.5 18.9913V19M19.5 11.9956V12.0044M19.5 8.49781V8.50656M5.5 15.4934V15.5022M5.5 11.9956V12.0044M5.5 8.49781V8.50656" stroke="#5D5E62" stroke-width="2" stroke-linecap="round" stroke-linejoin="round"/>
<path d="M16 15L22 21L16 15Z" fill="#EBEBEB"/>
<path d="M22 15L16 21L22 15Z" fill="#EBEBEB"/>
<path d="M16 15L22 21M22 15L16 21" stroke="#5D5E62" stroke-width="1.5" stroke-linecap="round" stroke-linejoin="round"/>
</svg>
