<svg width="25" height="24" viewBox="0 0 25 24" fill="none" xmlns="http://www.w3.org/2000/svg">
<path d="M5 18C5 19.6667 5 22 9 20C14 17.5 14 20 14 21" stroke="#5D5E62" stroke-width="1.2" stroke-linecap="round"/>
<path d="M5.70731 16.0852H5.10731V16.6852H5.70731V16.0852ZM9.12194 16.0852V16.6852H9.37047L9.54621 16.5095L9.12194 16.0852ZM18.0854 7.12183L18.5096 7.54609L18.0854 7.12183ZM16.378 3V2.4V3ZM14.6707 3.70719L14.2465 3.28293L14.6707 3.70719ZM5.70731 12.6706L5.28304 12.2463L5.10731 12.4221V12.6706H5.70731ZM14.2413 4.13654C14.007 3.90222 13.6271 3.90222 13.3928 4.13654C13.1585 4.37085 13.1585 4.75075 13.3928 4.98507L14.2413 4.13654ZM16.8074 8.3997C17.0417 8.63402 17.4216 8.63402 17.656 8.3997C17.8903 8.16539 17.8903 7.78549 17.656 7.55117L16.8074 8.3997ZM7.41206 10.9658C7.17774 10.7315 6.79784 10.7315 6.56353 10.9658C6.32921 11.2001 6.32922 11.58 6.56353 11.8143L7.41206 10.9658ZM14.2439 10.9633L14.6682 11.3876L14.6682 11.3876L14.2439 10.9633ZM5.70731 16.6852H9.12194V15.4852H5.70731V16.6852ZM18.5096 7.54609C19.0749 6.98076 19.3925 6.21401 19.3925 5.41451H18.1925C18.1925 5.89575 18.0014 6.35728 17.6611 6.69756L18.5096 7.54609ZM19.3925 5.41451C19.3925 4.61501 19.0749 3.84826 18.5096 3.28293L17.6611 4.13146C18.0014 4.47174 18.1925 4.93327 18.1925 5.41451H19.3925ZM18.5096 3.28293C17.9443 2.7176 17.1775 2.4 16.378 2.4V3.6C16.8593 3.6 17.3208 3.79117 17.6611 4.13146L18.5096 3.28293ZM16.378 2.4C15.5785 2.4 14.8118 2.7176 14.2465 3.28293L15.095 4.13146C15.4353 3.79117 15.8968 3.6 16.378 3.6V2.4ZM14.2465 3.28293L5.28304 12.2463L6.13157 13.0949L15.095 4.13146L14.2465 3.28293ZM5.10731 12.6706V16.0852H6.30731V12.6706H5.10731ZM13.3928 4.98507L16.8074 8.3997L17.656 7.55117L14.2413 4.13654L13.3928 4.98507ZM14.6682 11.3876L18.5096 7.54609L17.6611 6.69756L13.8196 10.539L14.6682 11.3876ZM9.54621 16.5095L10.8267 15.229L9.97816 14.3805L8.69767 15.661L9.54621 16.5095ZM6.56353 11.8143L9.97816 15.229L10.8267 14.3804L7.41206 10.9658L6.56353 11.8143ZM13.8196 10.539L9.97817 14.3804L10.8267 15.229L14.6682 11.3876L13.8196 10.539Z" fill="#5D5E62"/>
</svg>
