<svg width="25" height="24" viewBox="0 0 25 24" fill="none" xmlns="http://www.w3.org/2000/svg">
<path d="M4.5 5.77778C4.5 5.30628 4.6873 4.8541 5.0207 4.5207C5.3541 4.1873 5.80628 4 6.27778 4H18.7222C19.1937 4 19.6459 4.1873 19.9793 4.5207C20.3127 4.8541 20.5 5.30628 20.5 5.77778V18.2222C20.5 18.6937 20.3127 19.1459 19.9793 19.4793C19.6459 19.8127 19.1937 20 18.7222 20H6.27778C5.80628 20 5.3541 19.8127 5.0207 19.4793C4.6873 19.1459 4.5 18.6937 4.5 18.2222V5.77778Z" stroke="#5D5E62" stroke-width="1.2" stroke-linecap="round" stroke-linejoin="round"/>
<path d="M4.7948 19.6812L20.2451 4.23095" stroke="#5D5E62"/>
<path d="M4.5 5.65578L18.9484 5.65578" stroke="#5D5E62" stroke-width="1.2"/>
<path d="M4.5 7.46841L17.118 7.46841" stroke="#5D5E62" stroke-width="1.2"/>
<path d="M4.5 9.28104L9.61691 9.28104" stroke="#5D5E62" stroke-width="1.2"/>
<path d="M4.5 11.0937L8.84165 11.0937" stroke="#5D5E62" stroke-width="1.2"/>
<path d="M4.5 12.9063L8.84166 12.9063" stroke="#5D5E62" stroke-width="1.2"/>
<path d="M4.5 14.7189L9.6169 14.7189" stroke="#5D5E62" stroke-width="1.2"/>
<path d="M4.5 16.5316L7.83142 16.5228" stroke="#5D5E62" stroke-width="1.2"/>
<path d="M4.5 18.3442L6.27017 18.2988" stroke="#5D5E62" stroke-width="1.2"/>
<path d="M9.67157 14.8284C9.30014 14.457 9.0055 14.016 8.80448 13.5307C8.60346 13.0454 8.5 12.5253 8.5 12C8.5 11.4747 8.60346 10.9546 8.80448 10.4693C9.0055 9.98397 9.30014 9.54301 9.67157 9.17157C10.043 8.80014 10.484 8.5055 10.9693 8.30448C11.4546 8.10346 11.9747 8 12.5 8C13.0253 8 13.5454 8.10346 14.0307 8.30448C14.516 8.5055 14.957 8.80014 15.3284 9.17157M9.67157 14.8284C10.043 15.1999 10.484 15.4945 10.9693 15.6955C11.4546 15.8965 11.9747 16 12.5 16C13.0253 16 13.5454 15.8965 14.0307 15.6955C14.516 15.4945 14.957 15.1999 15.3284 14.8284C15.6999 14.457 15.9945 14.016 16.1955 13.5307C16.3965 13.0454 16.5 12.5253 16.5 12C16.5 11.4747 16.3965 10.9546 16.1955 10.4693C15.9945 9.98397 15.6999 9.54301 15.3284 9.17157M9.67157 14.8284L15.3284 9.17157M11.8715 12.6285H16.2712M10.3001 14.1999H15.6427M13.4428 11.0572H16.2712" stroke="#5D5E62" stroke-width="1.2" stroke-linecap="round" stroke-linejoin="round"/>
</svg>
