<svg width="25" height="24" viewBox="0 0 25 24" fill="none" xmlns="http://www.w3.org/2000/svg">
<circle cx="14.4036" cy="4.82583" r="2" transform="rotate(47.4551 14.4036 4.82583)" stroke="#5D5E62" stroke-width="1.2"/>
<circle cx="4.82583" cy="13.616" r="2" transform="rotate(47.4551 4.82583 13.616)" stroke="#5D5E62" stroke-width="1.2"/>
<path d="M12.9301 6.17818L6.29932 12.2637L12.9301 6.17818Z" fill="#D9D9D9"/>
<path d="M12.5244 5.73613L5.89362 11.8216L6.70503 12.7057L13.3358 6.62023L12.5244 5.73613ZM6.70503 12.7057L13.3358 6.62023L12.5244 5.73613L5.89362 11.8216L6.70503 12.7057Z" fill="#5D5E62"/>
<path d="M14.4404 20.4782C14.4736 20.6275 14.5517 20.7631 14.6643 20.8668C14.7768 20.9705 14.9183 21.0373 15.0699 21.0582C15.2214 21.0792 15.3758 21.0533 15.5122 20.984C15.6486 20.9148 15.7606 20.8054 15.8331 20.6707L17.1395 18.7373L20.2069 21.8046C20.2688 21.8666 20.3424 21.9157 20.4233 21.9492C20.5042 21.9827 20.5909 22 20.6785 22C20.7661 22 20.8528 21.9827 20.9338 21.9492C21.0147 21.9157 21.0882 21.8666 21.1502 21.8046L21.8046 21.1502C21.8666 21.0882 21.9157 21.0147 21.9492 20.9338C21.9827 20.8528 22 20.7661 22 20.6785C22 20.5909 21.9827 20.5042 21.9492 20.4233C21.9157 20.3424 21.8666 20.2688 21.8046 20.2069L18.7373 17.1395L20.6832 15.8331C20.8179 15.7605 20.9272 15.6485 20.9965 15.512C21.0657 15.3756 21.0915 15.2212 21.0705 15.0696C21.0495 14.9181 20.9826 14.7765 20.8789 14.6641C20.7751 14.5516 20.6394 14.4735 20.4901 14.4404L12 12L14.4404 20.4782Z" stroke="#5D5E62" stroke-width="1.2" stroke-linecap="round" stroke-linejoin="round"/>
</svg>
