<svg width="25" height="24" viewBox="0 0 25 24" fill="none" xmlns="http://www.w3.org/2000/svg">
<g clip-path="url(#clip0_239_517)">
<path d="M18.1568 14.1213L17.8033 9.52513M15.682 5.98959L12.5 4.92893M9.318 5.98959L6.13602 12.7071M7.55024 14.8284L16.0355 16.2426M18.8639 8.46447C18.4889 8.83954 17.9802 9.05025 17.4497 9.05025C16.9193 9.05025 16.4106 8.83954 16.0355 8.46447C15.6604 8.08939 15.4497 7.58069 15.4497 7.05025C15.4497 6.51982 15.6604 6.01111 16.0355 5.63604C16.4106 5.26097 16.9193 5.05025 17.4497 5.05025C17.9802 5.05025 18.4889 5.26097 18.8639 5.63604C19.239 6.01111 19.4497 6.51982 19.4497 7.05025C19.4497 7.58069 19.239 8.08939 18.8639 8.46447ZM11.7929 5.63604C11.4178 6.01111 10.9091 6.22183 10.3787 6.22183C9.84823 6.22183 9.33952 6.01111 8.96445 5.63604C8.58938 5.26097 8.37866 4.75226 8.37866 4.22183C8.37866 3.69139 8.58938 3.18269 8.96445 2.80761C9.33952 2.43254 9.84823 2.22183 10.3787 2.22183C10.9091 2.22183 11.4178 2.43254 11.7929 2.80761C12.1679 3.18269 12.3787 3.69139 12.3787 4.22183C12.3787 4.75226 12.1679 5.26097 11.7929 5.63604ZM19.5711 17.6569C19.196 18.0319 18.6873 18.2426 18.1568 18.2426C17.6264 18.2426 17.1177 18.0319 16.7426 17.6569C16.3676 17.2818 16.1568 16.7731 16.1568 16.2426C16.1568 15.7122 16.3676 15.2035 16.7426 14.8284C17.1177 14.4534 17.6264 14.2426 18.1568 14.2426C18.6873 14.2426 19.196 14.4534 19.5711 14.8284C19.9461 15.2035 20.1568 15.7122 20.1568 16.2426C20.1568 16.7731 19.9461 17.2818 19.5711 17.6569ZM6.84313 16.2426C6.46806 16.6177 5.95935 16.8284 5.42892 16.8284C4.89848 16.8284 4.38978 16.6177 4.0147 16.2426C3.63963 15.8676 3.42892 15.3589 3.42892 14.8284C3.42892 14.298 3.63963 13.7893 4.0147 13.4142C4.38978 13.0391 4.89848 12.8284 5.42892 12.8284C5.95935 12.8284 6.46806 13.0391 6.84313 13.4142C7.2182 13.7893 7.42892 14.298 7.42892 14.8284C7.42892 15.3589 7.2182 15.8676 6.84313 16.2426Z" stroke="#5D5E62" stroke-width="1.2" stroke-linecap="round" stroke-linejoin="round"/>
<path d="M17.9057 12.7025C18.1284 12.4798 18.3928 12.3031 18.6838 12.1826C18.9748 12.062 19.2867 12 19.6016 12C19.9166 12 20.2285 12.062 20.5194 12.1826C20.8104 12.3031 21.0748 12.4798 21.2975 12.7025C21.5202 12.9252 21.6969 13.1896 21.8174 13.4806C21.938 13.7715 22 14.0834 22 14.3984C22 14.7133 21.938 15.0252 21.8174 15.3162C21.6969 15.6072 21.5202 15.8716 21.2975 16.0943L19.3618 18.0471L17.4261 20H14V16.5739L17.9057 12.7025Z" fill="#D7D7D8" stroke="#5D5E62" stroke-width="1.2" stroke-linecap="round" stroke-linejoin="round"/>
</g>
<defs>
<clipPath id="clip0_239_517">
<rect width="24" height="24" fill="white" transform="translate(0.5)"/>
</clipPath>
</defs>
</svg>
