<svg width="25" height="24" viewBox="0 0 25 24" fill="none" xmlns="http://www.w3.org/2000/svg">
<circle cx="4.23807" cy="17.2381" r="2" transform="rotate(7.30509 4.23807 17.2381)" stroke="#5D5E62" stroke-width="1.2"/>
<circle cx="20.2381" cy="8.23807" r="2" transform="rotate(7.30509 20.2381 8.23807)" stroke="#5D5E62" stroke-width="1.2"/>
<path d="M11.8341 9.83406C12.4487 9.21945 12.8268 8.40774 12.9019 7.5418C12.977 6.67586 12.7443 5.81118 12.2447 5.09993C11.745 4.38868 11.0106 3.87645 10.1705 3.65338C9.33039 3.43031 8.43855 3.51071 7.65191 3.88042C6.86526 4.25013 6.23423 4.88545 5.86986 5.67459C5.50549 6.46372 5.43114 7.35609 5.6599 8.19464C5.88865 9.03319 6.40585 9.76418 7.12047 10.259C7.83509 10.7538 8.70133 10.9806 9.56675 10.8997V8.30035L11.8341 9.83406Z" fill="#D7D7D8"/>
<path d="M11.8341 9.83406C12.4382 9.22991 12.8142 8.43497 12.8979 7.58468C12.9817 6.7344 12.768 5.88138 12.2933 5.17098C11.8187 4.46057 11.1123 3.93673 10.2947 3.68872C9.47713 3.4407 8.59882 3.48385 7.80946 3.81081C7.0201 4.13777 6.36853 4.72832 5.96577 5.48183C5.56301 6.23534 5.43398 7.1052 5.60067 7.94318C5.76735 8.78116 6.21944 9.53542 6.8799 10.0774C7.54035 10.6195 8.36832 10.9157 9.22272 10.9157" stroke="#5D5E62" stroke-width="1.2"/>
<path d="M9.80866 18.2264C9.80141 18.3958 9.84612 18.5633 9.9368 18.7065C10.0275 18.8498 10.1598 18.9618 10.316 19.0277C10.4721 19.0936 10.6447 19.1101 10.8106 19.0751C10.9765 19.0401 11.1276 18.9552 11.2439 18.8318L13.1964 17.1374L15.5994 21.2995C15.6479 21.3835 15.7125 21.4572 15.7895 21.5163C15.8664 21.5753 15.9543 21.6187 16.0481 21.6438C16.1418 21.6689 16.2396 21.6753 16.3358 21.6626C16.432 21.65 16.5248 21.6185 16.6088 21.57L17.4969 21.0572C17.5809 21.0087 17.6546 20.9441 17.7136 20.8671C17.7727 20.7901 17.816 20.7023 17.8412 20.6085C17.8663 20.5148 17.8727 20.417 17.86 20.3208C17.8474 20.2246 17.8159 20.1318 17.7673 20.0478L15.3644 15.8857L17.8214 15.0456C17.9864 15.0066 18.1355 14.918 18.2487 14.7918C18.3619 14.6657 18.4338 14.5079 18.4548 14.3396C18.4758 14.1714 18.4448 14.0008 18.366 13.8507C18.2872 13.7005 18.1644 13.5781 18.0141 13.4998L9.62817 8.45372L9.80866 18.2264Z" stroke="#5D5E62" stroke-width="1.2" stroke-linecap="round" stroke-linejoin="round"/>
</svg>
