<svg width="25" height="24" viewBox="0 0 25 24" fill="none" xmlns="http://www.w3.org/2000/svg">
<path d="M7.13632 11.4422C6.76125 11.8173 6.25254 12.028 5.72211 12.028C5.19167 12.028 4.68297 11.8173 4.30789 11.4422C3.93282 11.0671 3.72211 10.5584 3.72211 10.028C3.72211 9.49754 3.93282 8.98883 4.30789 8.61376C4.68297 8.23868 5.19167 8.02797 5.72211 8.02797C6.25254 8.02797 6.76125 8.23868 7.13632 8.61376C7.51139 8.98883 7.72211 9.49754 7.72211 10.028C7.72211 10.5584 7.51139 11.0671 7.13632 11.4422ZM7.13632 11.4422L8.72211 13.028M14.3079 16.6138C14.683 16.2387 15.1917 16.028 15.7221 16.028C16.2525 16.028 16.7612 16.2387 17.1363 16.6138C17.5114 16.9888 17.7221 17.4975 17.7221 18.028C17.7221 18.5584 17.5114 19.0671 17.1363 19.4422C16.7612 19.8173 16.2525 20.028 15.7221 20.028C15.1917 20.028 14.683 19.8173 14.3079 19.4422C13.9328 19.0671 13.7221 18.5584 13.7221 18.028C13.7221 17.4975 13.9328 16.9888 14.3079 16.6138ZM14.3079 16.6138L11.9652 15.3801M7.22211 8.52797L10.7221 5.52797M14.7221 4.52797L17.7221 6.02797M19.2221 9.02797L16.7221 16.028M10.7221 4.02797C10.7221 4.5584 10.9328 5.06711 11.3079 5.44218C11.683 5.81726 12.1917 6.02797 12.7221 6.02797C13.2525 6.02797 13.7612 5.81726 14.1363 5.44218C14.5114 5.06711 14.7221 4.5584 14.7221 4.02797C14.7221 3.49754 14.5114 2.98883 14.1363 2.61376C13.7612 2.23868 13.2525 2.02797 12.7221 2.02797C12.1917 2.02797 11.683 2.23868 11.3079 2.61376C10.9328 2.98883 10.7221 3.49754 10.7221 4.02797ZM17.7221 7.02797C17.7221 7.5584 17.9328 8.06711 18.3079 8.44218C18.683 8.81726 19.1917 9.02797 19.7221 9.02797C20.2525 9.02797 20.7612 8.81726 21.1363 8.44218C21.5114 8.06711 21.7221 7.5584 21.7221 7.02797C21.7221 6.49754 21.5114 5.98883 21.1363 5.61376C20.7612 5.23868 20.2525 5.02797 19.7221 5.02797C19.1917 5.02797 18.683 5.23868 18.3079 5.61376C17.9328 5.98883 17.7221 6.49754 17.7221 7.02797Z" stroke="#5D5E62" stroke-width="1.2" stroke-linecap="round" stroke-linejoin="round"/>
<path d="M5.08959 15.0331C4.96481 15.0914 4.86083 15.1864 4.7916 15.3054C4.72236 15.4244 4.69117 15.5618 4.70223 15.6991C4.71328 15.8363 4.76604 15.9669 4.85343 16.0733C4.94082 16.1797 5.05867 16.2569 5.19115 16.2944L7.14413 17.0666L5.045 20.3583C5.00261 20.4248 4.97373 20.499 4.96001 20.5766C4.94628 20.6542 4.94798 20.7338 4.96501 20.8108C4.98204 20.8877 5.01406 20.9606 5.05925 21.0252C5.10444 21.0898 5.16191 21.1449 5.22837 21.1872L5.93073 21.6351C5.9972 21.6775 6.07136 21.7064 6.14899 21.7201C6.22662 21.7338 6.30619 21.7321 6.38316 21.7151C6.46013 21.6981 6.53299 21.6661 6.59759 21.6209C6.66218 21.5757 6.71725 21.5182 6.75963 21.4518L8.85877 18.16L10.3851 19.616C10.4751 19.7203 10.5948 19.7946 10.7281 19.8289C10.8615 19.8632 11.0022 19.8559 11.1313 19.8079C11.2604 19.76 11.3718 19.6737 11.4504 19.5607C11.5291 19.4476 11.5713 19.3133 11.5714 19.1755L12.0654 11.2404L5.08959 15.0331Z" stroke="#5D5E62" stroke-width="1.2" stroke-linecap="round" stroke-linejoin="round"/>
</svg>
