<svg width="25" height="24" viewBox="0 0 25 24" fill="none" xmlns="http://www.w3.org/2000/svg">
<path d="M21.5003 11.341L19.1863 4.27072L5.68848 5.42767L4.53152 19.6968L13.164 18.2014" stroke="#5D5E62" stroke-width="2" stroke-linecap="round" stroke-linejoin="round" stroke-dasharray="0.01 3.5"/>
<path d="M15.4615 18.8491C15.4609 18.9868 15.5023 19.1214 15.5803 19.2349C15.6583 19.3483 15.7692 19.4352 15.898 19.4839C16.0268 19.5326 16.1674 19.5407 16.301 19.5072C16.4345 19.4737 16.5547 19.4001 16.6452 19.2964L18.1781 17.8608L20.2567 21.1655C20.2987 21.2323 20.3534 21.2901 20.4177 21.3356C20.4821 21.3812 20.5547 21.4137 20.6316 21.4312C20.7084 21.4487 20.788 21.4509 20.8657 21.4377C20.9434 21.4244 21.0178 21.396 21.0845 21.354L21.7896 20.9105C21.8563 20.8685 21.9142 20.8138 21.9597 20.7495C22.0053 20.6852 22.0378 20.6125 22.0553 20.5357C22.0728 20.4588 22.075 20.3792 22.0618 20.3015C22.0485 20.2238 22.0201 20.1495 21.9781 20.0828L19.8994 16.7781L21.8681 16.0205C22.0009 15.9837 22.1192 15.9073 22.2072 15.8014C22.2952 15.6954 22.3487 15.5651 22.3606 15.4279C22.3724 15.2907 22.342 15.1532 22.2735 15.0337C22.2049 14.9143 22.1014 14.8187 21.977 14.7597L15.0144 10.9215L15.4615 18.8491Z" stroke="#5D5E62" stroke-width="1.2" stroke-linecap="round" stroke-linejoin="round"/>
</svg>
