<svg width="25" height="24" viewBox="0 0 25 24" fill="none" xmlns="http://www.w3.org/2000/svg">
<path d="M21.5 11V8C21.5 7.46957 21.2893 6.96086 20.9142 6.58579C20.5391 6.21071 20.0304 6 19.5 6H13.5M13.5 6L16.5 9M13.5 6L16.5 3M3.5 13V16C3.5 16.5304 3.71071 17.0391 4.08579 17.4142C4.46086 17.7893 4.96957 18 5.5 18H11.5M11.5 18L8.5 15M11.5 18L8.5 21M3.5 4C3.5 3.73478 3.60536 3.48043 3.79289 3.29289C3.98043 3.10536 4.23478 3 4.5 3H8.5C8.76522 3 9.01957 3.10536 9.20711 3.29289C9.39464 3.48043 9.5 3.73478 9.5 4V8C9.5 8.26522 9.39464 8.51957 9.20711 8.70711C9.01957 8.89464 8.76522 9 8.5 9H4.5C4.23478 9 3.98043 8.89464 3.79289 8.70711C3.60536 8.51957 3.5 8.26522 3.5 8V4ZM15.5 16C15.5 15.7348 15.6054 15.4804 15.7929 15.2929C15.9804 15.1054 16.2348 15 16.5 15H20.5C20.7652 15 21.0196 15.1054 21.2071 15.2929C21.3946 15.4804 21.5 15.7348 21.5 16V20C21.5 20.2652 21.3946 20.5196 21.2071 20.7071C21.0196 20.8946 20.7652 21 20.5 21H16.5C16.2348 21 15.9804 20.8946 15.7929 20.7071C15.6054 20.5196 15.5 20.2652 15.5 20V16Z" stroke="#5D5E62" stroke-width="1.2" stroke-linecap="round" stroke-linejoin="round"/>
</svg>
