<svg width="25" height="24" viewBox="0 0 25 24" fill="none" xmlns="http://www.w3.org/2000/svg">
<path d="M3.56006 13.0001C3.80547 15.1939 4.84865 17.2211 6.4912 18.696C8.13374 20.1709 10.2611 20.9907 12.4686 20.9995C14.6762 21.0082 16.8099 20.2053 18.4641 18.7434C20.1183 17.2816 21.1775 15.2628 21.4403 13.0709C21.7031 10.879 21.1511 8.66702 19.8894 6.85557C18.6276 5.04412 16.7441 3.75958 14.5971 3.24624C12.45 2.7329 10.1892 3.02658 8.24457 4.07141C6.29993 5.11625 4.80712 6.83937 4.05006 8.91306M3.5 4.00098V9.00098H8.5M11.5 12C11.5 12.2652 11.6054 12.5196 11.7929 12.7071C11.9804 12.8946 12.2348 13 12.5 13C12.7652 13 13.0196 12.8946 13.2071 12.7071C13.3946 12.5196 13.5 12.2652 13.5 12C13.5 11.7348 13.3946 11.4804 13.2071 11.2929C13.0196 11.1054 12.7652 11 12.5 11C12.2348 11 11.9804 11.1054 11.7929 11.2929C11.6054 11.4804 11.5 11.7348 11.5 12Z" stroke="#5D5E62" stroke-width="1.2" stroke-linecap="round" stroke-linejoin="round"/>
</svg>
