<svg width="25" height="24" viewBox="0 0 25 24" fill="none" xmlns="http://www.w3.org/2000/svg">
<path d="M4.76016 19.6422V9.19123L8.42544 8.39874L9.41606 15.9274L16.5485 16.1751L16.0532 19.9394L4.76016 19.6422Z" fill="#D7D7D8"/>
<path d="M16.5 16V18C16.5 18.5304 16.2893 19.0391 15.9142 19.4142C15.5391 19.7893 15.0304 20 14.5 20H6.5C5.96957 20 5.46086 19.7893 5.08579 19.4142C4.71071 19.0391 4.5 18.5304 4.5 18V10C4.5 9.46957 4.71071 8.96086 5.08579 8.58579C5.46086 8.21071 5.96957 8 6.5 8H8.5M8.5 6C8.5 5.46957 8.71071 4.96086 9.08579 4.58579C9.46086 4.21071 9.96957 4 10.5 4H18.5C19.0304 4 19.5391 4.21071 19.9142 4.58579C20.2893 4.96086 20.5 5.46957 20.5 6V14C20.5 14.5304 20.2893 15.0391 19.9142 15.4142C19.5391 15.7893 19.0304 16 18.5 16H10.5C9.96957 16 9.46086 15.7893 9.08579 15.4142C8.71071 15.0391 8.5 14.5304 8.5 14V6Z" stroke="#5D5E62" stroke-width="1.2" stroke-linecap="round" stroke-linejoin="round"/>
</svg>
