<svg width="25" height="24" viewBox="0 0 25 24" fill="none" xmlns="http://www.w3.org/2000/svg">
<g clip-path="url(#clip0_244_159)">
<path d="M9.181 20.8339V14.1905M5.30569 4.77905C4.79678 5.28797 4.39309 5.89213 4.11767 6.55706C3.84225 7.22199 3.70049 7.93465 3.70049 8.65436C3.70049 9.37407 3.84225 10.0867 4.11767 10.7517C4.39309 11.4166 4.79678 12.0208 5.30569 12.5297C5.81461 13.0386 6.41877 13.4423 7.0837 13.7177C7.74863 13.9931 8.46129 14.1349 9.181 14.1349C9.90071 14.1349 10.6134 13.9931 11.2783 13.7177C11.9432 13.4423 12.5474 13.0386 13.0563 12.5297C13.5652 12.0208 13.9689 11.4166 14.2443 10.7517C14.5198 10.0867 14.6615 9.37407 14.6615 8.65436C14.6615 7.93465 14.5198 7.22199 14.2443 6.55706C13.9689 5.89213 13.5652 5.28797 13.0563 4.77905C12.5474 4.27014 11.9432 3.86645 11.2783 3.59103C10.6134 3.31561 9.90071 3.17385 9.181 3.17385C8.46129 3.17385 7.74863 3.31561 7.0837 3.59103C6.41877 3.86645 5.81461 4.27014 5.30569 4.77905Z" stroke="#5D5E62" stroke-width="1.2" stroke-linecap="round" stroke-linejoin="round"/>
<path d="M18.6555 13.8968V16.6519M15.6824 13.8968C15.6824 13.3711 15.8912 12.867 16.2629 12.4953C16.6346 12.1236 17.1388 11.9147 17.6644 11.9147H19.6465C20.1721 11.9147 20.6763 12.1236 21.048 12.4953C21.4197 12.867 21.6285 13.3711 21.6285 13.8968V18.8519C21.6285 19.3775 21.4197 19.8817 21.048 20.2534C20.6763 20.6251 20.1721 20.8339 19.6465 20.8339H17.6644C17.1388 20.8339 16.6346 20.6251 16.2629 20.2534C15.8912 19.8817 15.6824 19.3775 15.6824 18.8519V13.8968Z" stroke="#5D5E62" stroke-width="1.2" stroke-linecap="round" stroke-linejoin="round"/>
<path d="M6.40637 8.8085H11.9556M9.181 6.03387V11.5831" stroke="#5D5E62" stroke-width="1.2" stroke-linecap="round" stroke-linejoin="round"/>
</g>
<defs>
<clipPath id="clip0_244_159">
<rect width="24" height="24" fill="white" transform="translate(0.5)"/>
</clipPath>
</defs>
</svg>
