<svg width="25" height="24" viewBox="0 0 25 24" fill="none" xmlns="http://www.w3.org/2000/svg">
<path d="M15 7L17.5 9.5M17.5 9.5L15 12M17.5 9.5H12.5M5 7L2.5 9.5M2.5 9.5L5 12M2.5 9.5H7.5M7.5 14.5L10 17M10 17L12.5 14.5M10 17V12M12.5 4.5L10 2M10 2L7.5 4.5M10 2V7" stroke="#5D5E62" stroke-width="1.2" stroke-linecap="round" stroke-linejoin="round"/>
<path d="M16 15.1519C16 14.5812 16.2267 14.0338 16.6303 13.6303C17.0338 13.2267 17.5812 13 18.1519 13H20.3037C20.8744 13 21.4218 13.2267 21.8253 13.6303C22.2289 14.0338 22.4556 14.5812 22.4556 15.1519V20.5315C22.4556 21.1022 22.2289 21.6496 21.8253 22.0531C21.4218 22.4567 20.8744 22.6834 20.3037 22.6834H18.1519C17.5812 22.6834 17.0338 22.4567 16.6303 22.0531C16.2267 21.6496 16 21.1022 16 20.5315V15.1519Z" fill="#D7D7D8"/>
<path d="M19.2278 15.1519L19.2278 18.0541L19.2278 15.1519Z" fill="#D7D7D8"/>
<path d="M19.2278 15.1519L19.2278 18.0541M16 15.1519C16 14.5812 16.2267 14.0338 16.6303 13.6303C17.0338 13.2267 17.5812 13 18.1519 13H20.3037C20.8744 13 21.4218 13.2267 21.8253 13.6303C22.2289 14.0338 22.4556 14.5812 22.4556 15.1519V20.5315C22.4556 21.1022 22.2289 21.6496 21.8253 22.0531C21.4218 22.4567 20.8744 22.6834 20.3037 22.6834H18.1519C17.5812 22.6834 17.0338 22.4567 16.6303 22.0531C16.2267 21.6496 16 21.1022 16 20.5315V15.1519Z" stroke="#5D5E62" stroke-width="1.2" stroke-linecap="round" stroke-linejoin="round"/>
</svg>
