<svg width="25" height="24" viewBox="0 0 25 24" fill="none" xmlns="http://www.w3.org/2000/svg">
<path d="M16.4778 8.01525H8.60715V4.50305H20.2862V15.8436H16.4778V8.01525Z" fill="#D7D7D8"/>
<path d="M8.56036 16.03H16.431V19.5422H4.75198V8.2017H8.56036V16.03Z" fill="#D7D7D8"/>
<path d="M16.5 16V18C16.5 18.5304 16.2893 19.0391 15.9142 19.4142C15.5391 19.7893 15.0304 20 14.5 20H6.5C5.96957 20 5.46086 19.7893 5.08579 19.4142C4.71071 19.0391 4.5 18.5304 4.5 18V10C4.5 9.46957 4.71071 8.96086 5.08579 8.58579C5.46086 8.21071 5.96957 8 6.5 8H8.5M16.5 16H18.5C19.0304 16 19.5391 15.7893 19.9142 15.4142C20.2893 15.0391 20.5 14.5304 20.5 14V6C20.5 5.46957 20.2893 4.96086 19.9142 4.58579C19.5391 4.21071 19.0304 4 18.5 4H10.5C9.96957 4 9.46086 4.21071 9.08579 4.58579C8.71071 4.96086 8.5 5.46957 8.5 6V8M16.5 16V14M16.5 16H14.5M8.5 8H10.5M8.5 8V10M8.5 14V16H10.5M14.5 8H16.5V10" stroke="#5D5E62" stroke-width="1.2" stroke-linecap="round" stroke-linejoin="round"/>
</svg>
